- 
http://www.Speed.Cd      fast  and The Hottest Private Tracker on the net

   signup is open now

Please Seed back to make the speed Faster!!!

------------------nfo--------------------------
-[IMG]http://img163.imageshack.us/img163/7198/thedebtbluray.jpg[/IMG]


[color=blue][size=5][b]The.Debt.2011.BDRip.XVID.AC3.HQ.Hive-CM8[/b][/size][/color]


[b]Thx Hive

CM8 Doing It Right The First Time :D


Source: Bluray

Video: 720x304 @bitrate 1550 2pass
Audio: English DTS to AC3 5.1 @448
Sample: Yes, included
Subs: Yes, English in srt /subs[/b]
 
http://www.imdb.com/title/tt1226753/


General
Complete name                  : The.Debt.2011.BDRip.XVID.AC3.HQ.Hive-CM8.avi
Format                         : AVI
Format/Info                    : Audio Video Interleave
File size                      : 1.59 GiB
Duration                       : 1h 53mn
Overall bit rate               : 2 006 Kbps
Writing application            : Nandub v1.0rc2
Writing library                : Nandub build 1853/release

Video
ID                             : 0
Format                         : MPEG-4 Visual
Format profile                 : Advanced Simple@L5
Format settings, BVOP          : 1
Format settings, QPel          : Yes
Format settings, GMC           : No warppoints
Format settings, Matrix        : Default (H.263)
Muxing mode                    : Packed bitstream
Codec ID                       : XVID
Codec ID/Hint                  : XviD
Duration                       : 1h 53mn
Bit rate                       : 1 549 Kbps
Width                          : 720 pixels
Height                         : 304 pixels
Display aspect ratio           : 2.40:1
Frame rate                     : 23.976 fps
Color space                    : YUV
Chroma subsampling             : 4:2:0
Bit depth                      : 8 bits
Scan type                      : Progressive
Compression mode               : Lossy
Bits/(Pixel*Frame)             : 0.295
Stream size                    : 1.23 GiB (77%)
Writing library                : XviD 1.2.1 (UTC 2008-12-04)

Audio
ID                             : 1
Format                         : AC-3
Format/Info                    : Audio Coding 3
Mode extension                 : CM (complete main)
Codec ID                       : 2000
Duration                       : 1h 53mn
Bit rate mode                  : Constant
Bit rate                       : 448 Kbps
Channel(s)                     : 6 channels
Channel positions              : Front: L C R, Side: L R, LFE
Sampling rate                  : 48.0 KHz
Bit depth                      : 16 bits
Compression mode               : Lossy
Stream size                    : 364 MiB (22%)
Alignment                      : Split accross interleaves
Interleave, duration           : 42 ms (1.00 video frame)
Interleave, preload duration   : 500 ms


Plot:
The Debt follows a trio of Israeli agents as they attempt to abduct, and bring to
justice, a notorious Nazi criminal - with the film unfolding both in the past and
in the late '90s, when the three comrades are forced to reunite following the
publication of a book detailing their efforts.


Cast:
Helen Mirren       ...    Rachel Singer
Tom Wilkinson      ...    Stephan Gold
Ciarn Hinds       ...    David Peretz
Jessica Chastain   ...    Young Rachel
Sam Worthington    ...    Young David



Greetz

ViSiON,SPK,SANTi,3LT0N,FUSiON,YanKeeS,MAGNET,THC,LKRG,Feel-Free,FANTASIA-PLAY,FANTASIA-M,FLAWL3SS,
WBZ,ZMG,BHRG,NOVA,D2U,Vik,Rapeseed,T0XiC,SAFC,goldadvance,MEMORY100,KaN1vE,Unevano,Pinnz,Wayne
Mr Hive,and most P2P groups
Great Work Guys :D

LOOKING FOR ANYTHING YOU WANT TO LOOK AND SOUND BETTER

CM8@hushmail.com